#!OML:ASF F:\VICON\USERDATA\INSTALL\Justin_Nancy\Justin_Nancy.ASF
:FULLY-SPECIFIED
:DEGREES
399
root -0.249875 17.2253 31.304 3.5865 -1.9588 -5.83434
lowerback 5.51746 2.0966 4.24706
upperback 1.11311 3.09533 2.79706
thorax -1.87437 1.52503 0.285316
lowerneck -17.8004 -2.98209 -9.07428
upperneck 19.0969 -2.87861 5.67123
head 9.15863 -1.38932 3.07855
rclavicle 2.7482e-014 2.18663e-014
rhumerus -21.8978 -7.77126 -80.5248
rradius 34.8144
rwrist 2.19122
rhand -15.6896 11.5486
rfingers 7.12502
rthumb 10.4996 -18.1692
lclavicle 2.7482e-014 2.18663e-014
lhumerus -33.143 17.955 81.6897
lradius 22.0668
lwrist -13.4188
lhand -12.1685 26.6388
lfingers 7.12502
lthumb 13.8947 416.155
rfemur 8.95903 4.54828 31.813
rtibia 10.4633
rfoot -11.7813 -7.27461
rtoes -5.56273
lfemur -33.3137 -7.2881 -9.83441
ltibia 22.7947
lfoot -9.64578 12.5392
ltoes -2.14617
400
root -0.232765 17.209 31.4538 3.74486 -2.12366 -5.94403
lowerback 5.39884 2.16366 4.36783
upperback 1.05016 3.18671 2.79507
thorax -1.86406 1.56946 0.213868
lowerneck -17.608 -2.87804 -8.9402
upperneck 19.032 -2.76384 5.5661
head 9.08821 -1.33914 3.03446
rclavicle -3.21534e-014 -1.47101e-014
rhumerus -21.8729 -7.68084 -80.5816
rradius 34.8809
rwrist 1.88959
rhand -15.8099 12.0989
rfingers 7.12502
rthumb 10.3835 -17.6247
lclavicle -3.21534e-014 -1.47101e-014
lhumerus -33.4056 17.8665 81.7212
lradius 22.0467
lwrist -13.9856
lhand -12.809 26.8844
lfingers 7.12502
lthumb 13.2773 416.441
rfemur 9.27698 4.744 31.8611
rtibia 10.6026
rfoot -11.9278 -7.08085
rtoes -5.54888
lfemur -33.3362 -7.22683 -9.66452
ltibia 22.1298
lfoot -10.6665 12.5264
ltoes -2.91729
401
root -0.215267 17.19 31.6056 3.74939 -2.19047 -6.0884
lowerback 5.62812 2.17783 4.5739
upperback 0.872342 3.24157 2.77882
thorax -2.16201 1.58804 0.065017
lowerneck -17.6182 -2.77433 -8.7747
upperneck 19.1991 -2.66995 5.56693
head 9.13716 -1.28469 3.02226
rclavicle -1.40143e-014 2.22639e-014
rhumerus -22.1522 -7.56301 -80.6679
rradius 35.2074
rwrist 1.73532
rhand -15.5066 11.6889
rfingers 7.12502
rthumb 10.6761 -18.0199
lclavicle -1.40143e-014 2.22639e-014
lhumerus -33.8685 17.7071 81.6786
lradius 22.2726
lwrist -14.2924
lhand -12.8879 29.0347
lfingers 7.12502
lthumb 13.2012 418.597
rfemur 9.63812 4.86768 31.9756
rtibia 10.9894
rfoot -12.1151 -7.07427
rtoes -6.09455
lfemur -33.1338 -6.88334 -9.6875
ltibia 21.6592
lfoot -11.2544 12.0533
ltoes -5.20368
402
root -0.203532 17.1767 31.758 3.73443 -2.18162 -5.96068
lowerback 5.79192 2.17429 4.37497
upperback 0.752194 3.24163 2.75868
thorax -2.38763 1.58444 0.144465
lowerneck -18.0323 -2.64888 -8.61065
upperneck 19.5632 -2.50586 5.52852
head 9.32244 -1.19859 3.00848
rclavicle -1.84373e-014 5.56597e-015
rhumerus -22.4052 -7.5272 -80.6822
rradius 35.607
rwrist 1.6827
rhand -15.3244 11.4109
rfingers 7.12502
rthumb 10.8519 -18.2888
lclavicle -1.84373e-014 5.56597e-015
lhumerus -34.1085 17.7426 81.6377
lradius 22.2179
lwrist -14.4814
lhand -12.5326 30.107
lfingers 7.12502
lthumb 13.5438 419.646
rfemur 9.95639 5.09616 31.8723
rtibia 11.519
rfoot -12.3344 -7.34816
rtoes -6.84665
lfemur -32.932 -7.35025 -9.64071
ltibia 21.4137
lfoot -11.5477 11.9905
ltoes -4.90639
403
root -0.184606 17.1663 31.9155 3.84046 -2.11352 -5.76969
lowerback 5.66006 2.14694 4.19753
upperback 0.649724 3.18972 2.70487
thorax -2.4277 1.55865 0.194419
lowerneck -17.5972 -2.65067 -8.75211
upperneck 19.3636 -2.53835 5.68519
head 9.1803 -1.21068 3.07994
rclavicle -2.92213e-014 1.03368e-014
rhumerus -22.5594 -7.3823 -80.7133
rradius 35.7493
rwrist 1.65349
rhand -15.4789 11.6522
rfingers 7.12502
rthumb 10.7029 -18.0552
lclavicle -2.92213e-014 1.03368e-014
lhumerus -34.3394 17.918 81.5136
lradius 21.9864
lwrist -14.5536
lhand -12.9545 29.0596
lfingers 7.12502
lthumb 13.137 418.626
rfemur 10.2142 5.1742 31.6132
rtibia 11.9039
rfoot -12.3743 -7.38771
rtoes -8.12982
lfemur -32.7797 -6.68937 -10.2466
ltibia 21.4398
lfoot -11.0385 10.7847
ltoes -4.37409
404
root -0.162395 17.1514 32.0732 3.8865 -2.02864 -5.69037
lowerback 5.72892 2.14354 4.21291
upperback 0.570048 3.19277 2.64299
thorax -2.5441 1.55697 0.117214
lowerneck -17.4923 -2.73627 -8.87422
upperneck 19.3813 -2.65972 5.79997
head 9.18051 -1.2655 3.12477
rclavicle -1.11816e-014 -1.90833e-014
rhumerus -22.6544 -7.41277 -80.7079
rradius 35.8349
rwrist 1.72113
rhand -15.7654 11.8485
rfingers 7.12502
rthumb 10.4265 -17.873
lclavicle -1.11816e-014 -1.90833e-014
lhumerus -34.4913 17.9886 81.4517
lradius 21.9343
lwrist -14.7352
lhand -12.8968 28.6731
lfingers 7.12502
lthumb 13.1926 418.236
rfemur 10.5614 5.19301 31.4473
rtibia 12.2313
rfoot -12.219 -7.27382
rtoes -9.79359
lfemur -32.5353 -5.47733 -11.0436
ltibia 21.6576
lfoot -10.0522 9.22695
ltoes -5.49121
405
root -0.144117 17.1461 32.2355 3.81345 -1.95219 -5.50962
lowerback 5.85318 2.13533 3.97964
upperback 0.57598 3.17463 2.64245
thorax -2.62056 1.54927 0.242308
lowerneck -18.4462 -2.60262 -8.60641
upperneck 19.8217 -2.43201 5.60963
head 9.48301 -1.15221 3.05023
rclavicle 2.08724e-015 -8.34896e-015
rhumerus -22.7813 -7.37592 -80.6241
rradius 36.0284
rwrist 1.93909
rhand -15.751 12.0751
rfingers 7.12502
rthumb 10.4404 -17.6457
lclavicle 2.08724e-015 -8.34896e-015
lhumerus -34.5613 18.2699 81.4405
lradius 21.8751
lwrist -15.1685
lhand -12.2792 29.2084
lfingers 7.12502
lthumb 13.7879 418.732
rfemur 11.0133 5.39795 31.2485
rtibia 12.599
rfoot -12.0366 -7.29481
rtoes -10.9549
lfemur -32.3073 -4.99959 -11.6117
ltibia 22.0965
lfoot -9.20609 8.46658
ltoes -4.60846
406
root -0.123062 17.1379 32.4104 3.51232 -1.86003 -5.33676
lowerback 5.79856 2.11819 3.82105
upperback 0.789485 3.12857 2.64939
thorax -2.37924 1.5336 0.34819
lowerneck -17.8066 -2.80549 -9.1366
upperneck 19.5712 -2.67788 5.88336
head 9.31077 -1.28219 3.19786
rclavicle 2.37548e-014 -7.95139e-015
rhumerus -22.7245 -7.40357 -80.526
rradius 36.0876
rwrist 2.19403
rhand -15.3106 12.2137
rfingers 7.12502
rthumb 10.8651 -17.4852
lclavicle 2.37548e-014 -7.95139e-015
lhumerus -34.5357 18.365 81.523
lradius 21.9572
lwrist -15.4292
lhand -11.9416 28.9883
lfingers 7.12502
lthumb 14.1133 418.489
rfemur 11.6943 5.46278 31.0427
rtibia 13.0381
rfoot -12.0524 -7.23803
rtoes -11.7854
lfemur -31.7754 -4.69088 -12.1941
ltibia 22.675
lfoot -8.84991 7.96628
ltoes -3.08556
407
root -0.104868 17.1256 32.5859 3.29305 -1.92617 -5.43744
lowerback 5.70102 2.09933 3.94019
upperback 0.857916 3.10131 2.6355
thorax -2.24748 1.52155 0.275401
lowerneck -19.8908 -3.3787 -8.10547
upperneck 21.7031 -3.30893 4.47545
head 10.4662 -1.65208 2.45754
rclavicle 3.55825e-014 7.15625e-015
rhumerus -22.8479 -7.45745 -80.677
rradius 36.1672
rwrist 2.42564
rhand -15.124 12.0637
rfingers 7.12502
rthumb 11.0451 -17.6257
lclavicle 3.55825e-014 7.15625e-015
lhumerus -34.6813 18.5635 81.2966
lradius 21.8479
lwrist -15.4095
lhand -11.7319 28.9753
lfingers 7.12502
lthumb 14.3153 418.462
rfemur 12.1581 5.65078 31.1363
rtibia 13.6971
rfoot -12.03 -7.18552
rtoes -11.7401
lfemur -31.2217 -4.07327 -12.5324
ltibia 23.2237
lfoot -8.2451 7.25854
ltoes -3.95201
408
root -0.0874182 17.1294 32.7566 3.19522 -2.08128 -5.3585
lowerback 5.6333 2.13313 3.7803
upperback 0.886622 3.13057 2.60355
thorax -2.18606 1.53857 0.332742
lowerneck -18.0826 -2.77078 -8.21252
upperneck 19.9444 -2.67226 5.00567
head 9.46553 -1.30772 2.74155
rclavicle 1.84373e-014 2.18663e-014
rhumerus -22.9861 -7.49159 -80.7884
rradius 36.4246
rwrist 2.39784
rhand -15.1146 11.4709
rfingers 7.12502
rthumb 11.0542 -18.218
lclavicle 1.84373e-014 2.18663e-014
lhumerus -34.5805 18.5634 81.3079
lradius 21.5685
lwrist -15.0564
lhand -11.8165 29.9268
lfingers 7.12502
lthumb 14.2339 419.419
rfemur 12.2994 5.8722 31.0466
rtibia 14.6426
rfoot -11.5521 -7.1118
rtoes -12.433
lfemur -30.8779 -3.63512 -12.9146
ltibia 23.6876
lfoot -6.34238 6.44094
ltoes -5.738
409
root -0.066982 17.1401 32.9178 3.19171 -2.23595 -5.10064
lowerback 5.53465 2.14754 3.34592
upperback 0.994158 3.11514 2.65023
thorax -2.04611 1.53707 0.629738
lowerneck -17.5681 -2.58025 -8.51988
upperneck 19.1078 -2.40349 5.25847
head 9.06819 -1.1747 2.90628
rclavicle -1.30204e-014 -7.95139e-015
rhumerus -22.9135 -7.43356 -80.7096
rradius 36.5003
rwrist 2.17425
rhand -15.2051 11.9787
rfingers 7.12502
rthumb 10.967 -17.7148
lclavicle -1.30204e-014 -7.95139e-015
lhumerus -34.3255 18.9548 81.447
lradius 21.4759
lwrist -15.0532
lhand -11.5541 30.1291
lfingers 7.12502
lthumb 14.4866 419.603
rfemur 12.1303 6.23649 30.7924
rtibia 15.8955
rfoot -10.7589 -7.03182
rtoes -12.5454
lfemur -30.6623 -3.39704 -13.3653
ltibia 23.9978
lfoot -3.83472 5.71038
ltoes -6.40422
410
root -0.0473575 17.1505 33.0862 3.13059 -2.38795 -4.94955
lowerback 5.5179 2.18781 3.03746
upperback 0.96814 3.15332 2.7316
thorax -2.08444 1.55802 0.882223
lowerneck -17.8682 -2.81295 -8.73105
upperneck 19.7078 -2.6672 5.30732
head 9.35566 -1.31136 2.9314
rclavicle 2.99171e-014 1.03368e-014
rhumerus -23.08 -7.43544 -80.5468
rradius 36.4923
rwrist 2.00961
rhand -15.3845 11.8053
rfingers 7.12502
rthumb 10.7939 -17.8974
lclavicle 2.99171e-014 1.03368e-014
lhumerus -34.3509 19.3958 81.4279
lradius 21.2491
lwrist -15.5148
lhand -11.9028 29.1236
lfingers 7.12502
lthumb 14.1507 418.622
rfemur 11.8525 6.60814 30.6751
rtibia 17.5449
rfoot -10.2883 -7.02546
rtoes -12.2071
lfemur -30.2119 -3.13081 -13.666
ltibia 24.0552
lfoot -2.34571 5.044
ltoes -5.41438
411
root -0.0295958 17.17 33.2685 3.00749 -2.41744 -4.55324
lowerback 5.42584 2.1984 2.57098
upperback 0.893751 3.13773 2.65186
thorax -2.13026 1.55293 1.06291
lowerneck -19.0814 -3.14094 -8.18257
upperneck 21.0742 -3.08368 4.77305
head 10.0773 -1.52257 2.60732
rclavicle 4.42296e-015 -7.95139e-016
rhumerus -23.5598 -7.60436 -80.5248
rradius 36.5749
rwrist 2.10509
rhand -15.675 11.4006
rfingers 7.12502
rthumb 10.5136 -18.3165
lclavicle 4.42296e-015 -7.95139e-016
lhumerus -34.5817 19.5011 81.3088
lradius 21.1547
lwrist -15.8201
lhand -12.8466 28.3284
lfingers 7.12502
lthumb 13.241 417.888
rfemur 11.485 6.83898 30.2917
rtibia 19.5715
rfoot -10.1823 -7.02128
rtoes -11.296
lfemur -29.553 -2.87248 -14.2741
ltibia 23.9175
lfoot -1.64092 3.9267
ltoes -4.67702
412
root -0.0119538 17.1889 33.4436 2.86243 -2.47366 -3.84896
lowerback 5.37797 2.22876 1.82342
upperback 0.922984 3.12778 2.43939
thorax -2.10136 1.55333 1.2643
lowerneck -16.6718 -2.79887 -8.96325
upperneck 19.2244 -2.79084 5.78689
head 8.98925 -1.34472 3.11706
rclavicle -1.95803e-014 -2.78299e-015
rhumerus -23.8794 -8.14965 -80.509
rradius 36.5055
rwrist 2.33332
rhand -16.0255 11.8365
rfingers 7.12502
rthumb 10.1756 -17.8975
lclavicle -1.95803e-014 -2.78299e-015
lhumerus -34.5149 19.7638 81.107
lradius 20.8948
lwrist -16.217
lhand -12.6176 28.5063
lfingers 7.12502
lthumb 13.4618 418.051
rfemur 10.9613 6.86715 29.5172
rtibia 21.766
rfoot -9.76771 -6.98606
rtoes -11.2888
lfemur -28.8475 -2.67705 -15.1751
ltibia 23.7515
lfoot -0.987486 2.73619
ltoes -4.30017
413
root 0.00333726 17.1987 33.611 2.71322 -2.49026 -3.24749
lowerback 5.46513 2.27838 1.22707
upperback 0.90535 3.15718 2.19689
thorax -2.18687 1.57131 1.3414
lowerneck -16.6671 -2.91928 -9.0271
upperneck 19.3202 -2.9838 5.96071
head 9.04064 -1.42221 3.16477
rclavicle -1.59525e-014 -2.10712e-014
rhumerus -24.2882 -8.80538 -80.5475
rradius 36.5776
rwrist 2.48179
rhand -16.1734 11.6475
rfingers 7.12502
rthumb 10.0329 -18.0933
lclavicle -1.59525e-014 -2.10712e-014
lhumerus -34.3967 20.2128 80.6941
lradius 20.4451
lwrist -16.8006
lhand -12.1454 28.5914
lfingers 7.12502
lthumb 13.9169 418.106
rfemur 10.3342 6.69535 28.8685
rtibia 24.0936
rfoot -8.96036 -7.07132
rtoes -12.4201
lfemur -28.1257 -2.34125 -16.0003
ltibia 23.573
lfoot 0.129211 1.75172
ltoes -1.62534
